<?xml version="1.0" encoding="UTF-8"?>
<svg xmlns="http://www.w3.org/2000/svg" xmlns:xlink="http://www.w3.org/1999/xlink" width="64pt" height="64pt" viewBox="0 0 64 64" version="1.1">
<g id="surface24552764">
<rect x="0" y="0" width="64" height="64" style="fill:rgb(100%,29.411766%,35.294119%);fill-opacity:1;stroke:none;"/>
<path style=" stroke:none;fill-rule:nonzero;fill:rgb(100%,100%,100%);fill-opacity:1;" d="M 31.996094 1.011719 C 31.738281 1.011719 31.480469 1.105469 31.292969 1.292969 L 1.292969 31.292969 C 0.902344 31.683594 0.902344 32.316406 1.292969 32.707031 L 31.292969 62.707031 C 31.480469 62.894531 31.734375 63 32 63 C 32.265625 63 32.519531 62.894531 32.707031 62.707031 L 62.707031 32.707031 C 63.097656 32.316406 63.097656 31.683594 62.707031 31.292969 L 32.707031 1.292969 C 32.515625 1.105469 32.257812 1.011719 31.996094 1.011719 Z M 32.175781 3.59375 L 60.585938 32 L 36.082031 56.503906 C 36.359375 55.441406 36.515625 54.339844 36.515625 53.214844 C 36.515625 50.078125 35.402344 47.117188 33.382812 44.761719 L 45.433594 32.707031 C 45.828125 32.316406 45.828125 31.683594 45.433594 31.292969 L 32.707031 18.566406 C 30.628906 16.488281 29.484375 13.726562 29.484375 10.789062 C 29.484375 8.113281 30.441406 5.59375 32.175781 3.59375 Z M 27.917969 7.492188 C 27.644531 8.554688 27.484375 9.660156 27.484375 10.785156 C 27.484375 13.921875 28.597656 16.882812 30.621094 19.238281 L 18.566406 31.292969 C 18.175781 31.683594 18.175781 32.316406 18.566406 32.707031 L 21.394531 35.535156 C 21.785156 35.925781 22.417969 35.925781 22.808594 35.535156 C 23.199219 35.144531 23.199219 34.511719 22.808594 34.121094 L 20.6875 32 L 32 20.683594 L 43.3125 32 L 32 43.3125 L 31.292969 42.605469 C 30.902344 42.214844 30.269531 42.214844 29.878906 42.605469 C 29.488281 42.996094 29.488281 43.628906 29.878906 44.019531 L 31.292969 45.433594 C 33.371094 47.511719 34.515625 50.273438 34.515625 53.210938 C 34.515625 55.886719 33.558594 58.410156 31.824219 60.40625 L 3.414062 32 Z M 34.121094 9.082031 C 33.863281 9.082031 33.609375 9.179688 33.414062 9.371094 L 32 10.785156 C 31.609375 11.175781 31.609375 11.8125 32 12.199219 C 32.390625 12.589844 33.023438 12.589844 33.414062 12.199219 L 34.828125 10.785156 C 35.21875 10.394531 35.21875 9.761719 34.828125 9.371094 C 34.632812 9.179688 34.378906 9.082031 34.121094 9.082031 Z M 37.65625 12.613281 C 37.398438 12.613281 37.144531 12.714844 36.949219 12.90625 L 35.535156 14.320312 C 35.144531 14.710938 35.144531 15.347656 35.535156 15.734375 C 35.925781 16.125 36.558594 16.125 36.949219 15.734375 L 38.363281 14.320312 C 38.753906 13.933594 38.753906 13.296875 38.363281 12.90625 C 38.167969 12.714844 37.914062 12.613281 37.65625 12.613281 Z M 41.191406 16.152344 C 40.933594 16.152344 40.679688 16.25 40.484375 16.441406 L 39.070312 17.855469 C 38.679688 18.246094 38.679688 18.882812 39.070312 19.269531 C 39.460938 19.660156 40.09375 19.660156 40.484375 19.269531 L 41.898438 17.855469 C 42.289062 17.46875 42.289062 16.832031 41.898438 16.441406 C 41.703125 16.25 41.449219 16.152344 41.191406 16.152344 Z M 44.730469 19.6875 C 44.472656 19.6875 44.214844 19.785156 44.023438 19.976562 L 42.609375 21.390625 C 42.21875 21.78125 42.21875 22.417969 42.609375 22.804688 C 42.996094 23.195312 43.632812 23.195312 44.023438 22.804688 L 45.433594 21.390625 C 45.824219 21.003906 45.824219 20.371094 45.433594 19.976562 C 45.242188 19.785156 44.984375 19.6875 44.726562 19.6875 Z M 48.265625 23.222656 C 48.007812 23.222656 47.75 23.320312 47.554688 23.515625 L 46.144531 24.929688 C 45.753906 25.320312 45.753906 25.953125 46.144531 26.34375 C 46.53125 26.734375 47.167969 26.734375 47.554688 26.34375 L 48.96875 24.929688 C 49.359375 24.539062 49.359375 23.90625 48.96875 23.515625 C 48.777344 23.320312 48.519531 23.222656 48.261719 23.222656 Z M 51.796875 26.757812 C 51.542969 26.757812 51.285156 26.855469 51.089844 27.050781 L 49.675781 28.464844 C 49.289062 28.855469 49.289062 29.488281 49.675781 29.878906 C 50.066406 30.269531 50.703125 30.269531 51.089844 29.878906 L 52.503906 28.464844 C 52.894531 28.074219 52.894531 27.441406 52.503906 27.050781 C 52.3125 26.855469 52.054688 26.757812 51.796875 26.757812 Z M 55.335938 30.292969 C 55.078125 30.292969 54.824219 30.390625 54.628906 30.585938 L 53.210938 32 C 52.824219 32.390625 52.824219 33.023438 53.210938 33.414062 C 53.601562 33.804688 54.238281 33.804688 54.625 33.414062 L 56.042969 32 C 56.433594 31.609375 56.433594 30.976562 56.042969 30.585938 C 55.847656 30.390625 55.59375 30.292969 55.335938 30.292969 Z M 24.929688 36.65625 C 24.675781 36.65625 24.417969 36.753906 24.222656 36.949219 C 23.832031 37.339844 23.832031 37.972656 24.222656 38.363281 L 27.050781 41.191406 C 27.246094 41.386719 27.5 41.484375 27.757812 41.484375 C 28.015625 41.484375 28.269531 41.386719 28.464844 41.191406 C 28.855469 40.800781 28.855469 40.167969 28.464844 39.777344 L 25.636719 36.949219 C 25.441406 36.753906 25.183594 36.65625 24.929688 36.65625 Z M 24.929688 36.65625 "/>
</g>
</svg>
