<svg xmlns="http://www.w3.org/2000/svg" xmlns:xlink="http://www.w3.org/1999/xlink" xmlns:fi="http://pattern.flaticon.com/" x="0" y="0" width="700" height="350" viewBox="0 0 700 350"><rect x="0px" y="0px" width="100%" height="100%" opacity="1" fill="#ffffff"/><defs><g transform="matrix(0.13671875 0 0 0.13671875 315 315)" id="L1_0"><path d="M255.999,132.895c-88.362,0-160.25,71.888-160.25,160.25s71.888,160.25,160.25,160.25s160.25-71.888,160.25-160.25    C416.249,204.783,344.361,132.895,255.999,132.895z M266.379,432.251v-13.375c0-5.733-4.647-10.38-10.38-10.38    c-5.733,0-10.38,4.647-10.38,10.38v13.375c-68.659-5.075-123.651-60.066-128.726-128.725h13.375c5.733,0,10.38-4.648,10.38-10.38    c0-5.733-4.647-10.38-10.38-10.38h-13.375c5.075-68.66,60.066-123.651,128.726-128.726v13.375c0,5.732,4.647,10.38,10.38,10.38    c5.733,0,10.38-4.648,10.38-10.38v-13.375c68.659,5.075,123.651,60.066,128.725,128.726h-13.374c-5.733,0-10.38,4.647-10.38,10.38    c0,5.732,4.647,10.38,10.38,10.38h13.375C390.029,372.184,335.038,427.176,266.379,432.251z"/><path d="M266.379,74.544V61.059h16.675c5.733,0,10.38-4.647,10.38-10.38v-40.3c0-5.733-4.647-10.38-10.38-10.38h-54.115    c-5.733,0-10.38,4.647-10.38,10.38v40.3c0,5.733,4.647,10.38,10.38,10.38h16.682v13.485    C129.745,79.982,37.145,175.949,37.145,293.145C37.145,413.822,135.322,512,256,512s218.855-98.178,218.855-218.855    C474.855,175.949,382.254,79.982,266.379,74.544z M239.318,40.3V20.759h33.356V40.3H239.318z M255.999,490.148    c-108.628,0-197.003-88.375-197.003-197.003S147.371,96.143,255.999,96.143s197.003,88.375,197.003,197.003    C453.003,401.774,364.628,490.148,255.999,490.148z"/><path d="M332.41,216.738c-3.06-3.06-7.696-3.901-11.636-2.111l-94.97,43.168c-0.079,0.036-0.153,0.08-0.232,0.118    c-0.158,0.076-0.316,0.155-0.471,0.24c-0.14,0.076-0.274,0.159-0.41,0.243c-0.139,0.085-0.279,0.168-0.415,0.261    c-0.161,0.109-0.315,0.227-0.47,0.345c-0.103,0.079-0.209,0.153-0.309,0.236c-0.512,0.423-0.982,0.893-1.405,1.405    c-0.084,0.103-0.159,0.21-0.239,0.314c-0.117,0.153-0.234,0.305-0.341,0.464c-0.094,0.138-0.179,0.28-0.266,0.422    c-0.081,0.132-0.162,0.264-0.237,0.401c-0.087,0.158-0.166,0.318-0.245,0.48c-0.037,0.076-0.08,0.149-0.115,0.226l-43.168,94.97    c-1.791,3.939-0.949,8.576,2.11,11.634c1.989,1.99,4.645,3.041,7.342,3.041c1.451,0,2.914-0.305,4.293-0.931l94.97-43.168    c0.079-0.036,0.152-0.08,0.229-0.117c0.159-0.078,0.318-0.156,0.474-0.241c0.139-0.076,0.272-0.158,0.406-0.24    c0.14-0.085,0.281-0.169,0.417-0.263c0.159-0.108,0.313-0.225,0.465-0.342c0.105-0.08,0.212-0.155,0.314-0.239    c0.511-0.422,0.981-0.892,1.403-1.403c0.087-0.105,0.165-0.216,0.247-0.323c0.114-0.15,0.228-0.298,0.334-0.454    c0.095-0.14,0.181-0.283,0.269-0.426c0.08-0.131,0.161-0.261,0.235-0.397c0.087-0.158,0.167-0.32,0.246-0.482    c0.037-0.075,0.08-0.148,0.115-0.225l43.168-94.97C336.311,224.433,335.47,219.797,332.41,216.738z M207.832,341.312    l25.517-56.137l30.62,30.62L207.832,341.312z M278.649,301.117l-30.62-30.62l56.137-25.517L278.649,301.117z"/></g><g transform="matrix(0.09765605628490448 0 0 0.09765605628490448 150 325)" id="L1_1"><path d="M399.28,277.601c-0.171-5.904-2.792-11.536-7.191-15.454c-37.419-33.312-85.748-51.658-136.088-51.658    c-50.34,0-98.669,18.346-136.088,51.658c-4.398,3.916-7.019,9.548-7.19,15.451c-0.173,5.94,2.137,11.756,6.339,15.957    l41.123,41.123c8.001,7.999,20.553,8.545,29.2,1.267c18.55-15.62,42.209-24.221,66.616-24.22c24.409,0,48.067,8.603,66.617,24.22    c4.067,3.426,8.997,5.119,13.914,5.119c5.534-0.001,11.049-2.147,15.287-6.384l41.122-41.123    C397.141,289.356,399.452,283.541,399.28,277.601z M336.556,319.398l-0.004-0.002c-22.445-18.898-51.052-29.305-80.551-29.305    c-29.498,0-58.107,10.409-80.519,29.29l-41.183-41.075c33.453-29.78,76.674-46.181,121.703-46.181s88.25,16.401,121.642,46.133    L336.556,319.398z"/><path d="M288.191,383.008c-8.598-8.598-20.03-13.334-32.189-13.334s-23.592,4.736-32.19,13.333    c-17.748,17.751-17.748,46.63,0.001,64.379c8.874,8.874,20.533,13.311,32.189,13.311s23.314-4.436,32.188-13.311    c8.598-8.597,13.334-20.03,13.334-32.189C301.524,403.037,296.788,391.605,288.191,383.008z M272.892,432.09    c-9.312,9.314-24.468,9.314-33.782,0c-9.315-9.315-9.315-24.47,0-33.784c4.512-4.513,10.511-6.997,16.892-6.997    c6.38,0,12.379,2.485,16.891,6.997c0,0.001,0,0.001,0.001,0.001c4.512,4.512,6.996,10.511,6.996,16.892    C279.89,421.579,277.405,427.579,272.892,432.09z"/><path d="M505.147,149.718C365.44,18.499,146.563,18.498,6.854,149.717c-4.326,4.062-6.758,9.561-6.852,15.486    c-0.092,5.902,2.156,11.451,6.328,15.623l41.041,41.041c8.26,8.26,21.425,8.519,29.971,0.592    c48.605-45.098,112.053-69.935,178.659-69.935c66.604,0,130.053,24.837,178.658,69.935c4.16,3.862,9.416,5.781,14.668,5.781    c5.534,0,11.065-2.133,15.304-6.372l41.041-41.041c4.173-4.172,6.42-9.721,6.328-15.623    C511.905,159.28,509.473,153.78,505.147,149.718z M449.375,206.601c-52.619-48.824-121.293-75.711-193.373-75.711    c-72.081,0-140.755,26.888-193.332,75.679l-41.005-41.082c131.406-123.42,337.27-123.416,468.673,0.001l0.036,0.041    L449.375,206.601z"/></g><g transform="matrix(0.09765625 0 0 0.09765625 62.5 150)" id="L1_2"><path d="M508.796,92.805l-77.46-77.456c-2.052-2.051-4.834-3.204-7.736-3.204H88.4c-2.901,0-5.685,1.153-7.736,3.204L3.205,92.805    c-3.667,3.668-4.256,9.406-1.409,13.742l162.031,246.74c-6.471,13.409-10.1,28.438-10.1,44.298    c0,56.392,45.879,102.271,102.27,102.271s102.27-45.88,102.27-102.271c0-15.858-3.628-30.884-10.097-44.292l162.036-246.746    C513.052,102.211,512.463,96.473,508.796,92.805z M92.931,34.026h326.137l55.579,55.58h-77.453c-0.077,0-0.153-0.002-0.23,0    H115.037c-0.08-0.002-0.16,0-0.238,0H37.353L92.931,34.026z M376.905,111.485L256.169,295.317c-0.057,0-0.114-0.002-0.172-0.002    c-0.056,0-0.11,0.002-0.165,0.002L135.094,111.485H376.905z M31.216,111.485h77.701l122.674,186.779    c-21.899,5.383-41.045,17.834-54.874,34.79L31.216,111.485z M255.997,477.977c-44.327,0-80.389-36.063-80.389-80.391    s36.063-80.389,80.389-80.389c44.327,0,80.39,36.063,80.39,80.39C336.387,441.914,300.324,477.977,255.997,477.977z     M335.28,333.06c-13.827-16.957-32.974-29.409-54.872-34.793l122.674-186.782h77.701L335.28,333.06z"/><path d="M259.713,357.546h-17.381c-6.042,0-10.94,4.899-10.94,10.94c0,6.041,4.898,10.94,10.94,10.94h6.44v59.161    c0,6.041,4.898,10.94,10.94,10.94c6.042,0,10.94-4.899,10.94-10.94v-70.101C270.653,362.444,265.755,357.546,259.713,357.546z"/></g><g transform="matrix(0.06930291652679443 0 0 0.06930291652679443 244.75845336914062 157.25845336914062)" id="L1_3"><path d="M477.607,128.055C443.432,68.863,388.251,26.52,322.229,8.83C256.208-8.862,187.248,0.218,128.055,34.393    C68.861,68.57,26.52,123.75,8.83,189.771c-17.692,66.022-8.611,134.982,25.564,194.174    c34.175,59.192,89.355,101.535,155.377,119.225c22.046,5.908,44.417,8.83,66.646,8.83c44.339-0.001,88.101-11.629,127.529-34.395    C443.137,443.43,485.48,388.25,503.17,322.228C520.862,256.207,511.781,187.248,477.607,128.055z M477.431,315.333    c-15.848,59.146-53.78,108.579-106.81,139.197c-53.03,30.616-114.808,38.749-173.954,22.901    c-59.146-15.849-108.579-53.78-139.197-106.81c-30.616-53.028-38.749-114.807-22.901-173.954    c15.848-59.146,53.78-108.579,106.81-139.197c53.03-30.616,114.81-38.748,173.952-22.901    c59.146,15.848,108.581,53.78,139.197,106.81C485.145,194.407,493.28,256.186,477.431,315.333z"/><path d="M311.843,233.811l-138.971-80.236c-8.024-4.631-17.601-4.631-25.624-0.001c-8.022,4.631-12.812,12.927-12.812,22.191    v160.471c0,9.264,4.79,17.558,12.812,22.191c4.01,2.317,8.41,3.474,12.81,3.474c4.401,0,8.802-1.158,12.812-3.474l138.973-80.236    c8.021-4.63,12.811-12.927,12.811-22.19C324.654,246.738,319.864,238.442,311.843,233.811z M161.083,334.461V177.539    l135.899,78.46L161.083,334.461z"/><path d="M364.241,153.2c-7.358,0-13.324,5.967-13.324,13.324v178.968c0,7.358,5.966,13.324,13.324,13.324    s13.324-5.965,13.324-13.324V166.524C377.565,159.167,371.599,153.2,364.241,153.2z"/></g><g transform="matrix(0.1171872690320015 0 0 0.1171872690320015 103 42.00000137328834)" id="L1_4"><path d="M405.967,195.112c-1.069-78.061-64.902-141.239-143.213-141.239c-34.835,0-68.396,12.672-94.498,35.682    c-23.296,20.535-39.232,47.977-45.543,78.106c-0.461-0.005-0.918-0.009-1.374-0.009C54.434,167.652,0,222.085,0,288.991    S54.434,410.33,121.34,410.33h84.743c6.029,0,10.919-4.888,10.919-10.919c0-6.031-4.89-10.919-10.919-10.919H121.34    c-54.866,0-99.502-44.636-99.502-99.501c0-54.865,44.636-99.501,99.502-99.501c2.923,0,6.013,0.157,9.448,0.48    c5.822,0.545,11.049-3.596,11.842-9.396c3.932-28.82,18.161-55.327,40.067-74.638c22.111-19.492,50.542-30.226,80.056-30.226    c66.935,0,121.389,54.455,121.389,121.389c0,2.41-0.179,4.894-0.368,7.524l-0.081,1.118c-0.227,3.212,0.975,6.361,3.287,8.604    c2.309,2.243,5.488,3.351,8.697,3.03c2.904-0.293,5.834-0.44,8.708-0.44c47.297,0,85.778,38.48,85.778,85.778    c0,47.297-38.48,85.777-85.778,85.777h-89.111c-6.029,0-10.919,4.888-10.919,10.919c0,6.031,4.89,10.919,10.919,10.919h89.111    c59.339,0,107.616-48.275,107.616-107.615C512,243.906,464.58,195.961,405.967,195.112z"/><path d="M262.755,105.192c-45.658,0-84.742,34.121-90.914,79.367c-0.815,5.975,3.369,11.48,9.343,12.295    c0.501,0.068,0.998,0.102,1.489,0.102c5.375,0,10.059-3.97,10.804-9.444c4.703-34.48,34.486-60.482,69.277-60.482    c6.031,0,10.919-4.888,10.919-10.919C273.674,110.081,268.785,105.192,262.755,105.192z"/><path d="M312.41,320.052l-39.718-35.48c-6.847-6.12-17.177-6.119-24.027-0.001l-39.718,35.482    c-4.498,4.017-4.886,10.92-0.869,15.418c4.017,4.496,10.919,4.887,15.418,0.869l26.264-23.462v134.331    c0,6.031,4.888,10.919,10.919,10.919c6.03,0,10.919-4.888,10.919-10.919V312.876l26.265,23.463    c2.082,1.861,4.681,2.776,7.27,2.776c3.002,0,5.99-1.229,8.148-3.645C317.296,330.972,316.907,324.07,312.41,320.052z"/></g><g transform="matrix(0.1171872690320015 0 0 0.1171872690320015 280 48)" id="L1_5"><path d="M457.637,134.681c-29.976,0-54.363,24.387-54.363,54.363c0,10.933,3.255,21.114,8.831,29.647l-58.733,58.733    c-8.534-5.576-18.715-8.831-29.648-8.831c-11.329,0-21.858,3.488-30.576,9.441l-59.338-59.347    c5.575-8.533,8.828-18.713,8.828-29.644c0-29.976-24.387-54.363-54.363-54.363c-29.976,0-54.363,24.387-54.363,54.363    c0,10.931,3.254,21.108,8.827,29.641L84.004,277.42c-8.532-5.574-18.711-8.827-29.641-8.827C24.387,268.593,0,292.981,0,322.957    s24.387,54.363,54.363,54.363c29.976,0,54.363-24.387,54.363-54.363c0-10.933-3.255-21.114-8.831-29.648l58.733-58.733    c8.534,5.576,18.715,8.831,29.648,8.831c10.932,0,21.113-3.255,29.646-8.831l59.666,59.674    c-5.206,8.338-8.226,18.174-8.226,28.706c0,29.976,24.387,54.363,54.363,54.363s54.363-24.387,54.363-54.363    c0-10.931-3.254-21.109-8.827-29.641l58.736-58.736c8.533,5.574,18.712,8.827,29.641,8.827c29.976,0,54.363-24.387,54.363-54.363    C512.001,159.066,487.613,134.681,457.637,134.681z M54.363,354.849c-17.586,0-31.893-14.307-31.893-31.892    c0-17.586,14.307-31.893,31.893-31.893c17.585,0,31.893,14.307,31.893,31.893C86.256,340.542,71.949,354.849,54.363,354.849z     M188.276,220.936c-17.585,0-31.893-14.307-31.893-31.893c0-17.585,14.307-31.893,31.893-31.893    c17.586,0,31.893,14.307,31.893,31.893C220.169,206.629,205.862,220.936,188.276,220.936z M323.724,354.849    c-17.585,0-31.893-14.307-31.893-31.893s14.307-31.893,31.893-31.893c17.585,0,31.893,14.307,31.893,31.893    C355.616,340.542,341.309,354.849,323.724,354.849z M457.637,220.936c-17.585,0-31.893-14.307-31.893-31.893    c0-17.585,14.307-31.893,31.893-31.893c17.585,0,31.893,14.307,31.893,31.893C489.53,206.629,475.222,220.936,457.637,220.936z"/><path d="M176.774,272.717c-4.388-4.387-11.501-4.387-15.889,0l-22.854,22.854c-4.387,4.387-4.387,11.501,0.001,15.889    c2.194,2.194,5.069,3.291,7.944,3.291s5.751-1.098,7.944-3.291l22.854-22.854C181.163,284.219,181.163,277.104,176.774,272.717z"/><path d="M373.962,200.939c-4.388-4.387-11.5-4.387-15.89,0.001l-22.854,22.854c-4.387,4.387-4.387,11.501,0,15.889    c2.195,2.193,5.07,3.29,7.945,3.29c2.876,0,5.75-1.098,7.944-3.291l22.854-22.854C378.349,212.44,378.349,205.326,373.962,200.939    z"/></g><g transform="matrix(0.1171875 0 0 0.1171875 86 226)" id="L1_6"><path d="M489.657,196.47h-26.229v-40.024c0-18.48-15.035-33.515-33.515-33.515H33.515C15.035,122.931,0,137.965,0,156.445v199.109    c0,18.48,15.035,33.515,33.515,33.515h396.399c18.48,0,33.515-15.035,33.515-33.515V315.53h26.229    c12.32,0,22.343-10.023,22.343-22.343v-74.375C512,206.493,501.977,196.47,489.657,196.47z M113.377,366.726H33.515    c-6.16,0-11.172-5.012-11.172-11.172V156.445c0-6.16,5.012-11.172,11.172-11.172h79.862V366.726z M441.085,355.555    c0,6.16-5.012,11.172-11.172,11.172H135.72V145.274h294.194c6.16,0,11.172,5.012,11.172,11.172V355.555z M489.657,293.187h-26.229    v-74.375h26.229l0.015,74.375C489.67,293.186,489.666,293.187,489.657,293.187z"/><path d="M363.722,241.226c-3.3-5.21-10.202-6.761-15.416-3.459l-48.733,30.871v-45.581c0-4.073-2.216-7.823-5.786-9.787    c-3.567-1.963-7.923-1.829-11.365,0.35l-65.883,41.737c-5.212,3.302-6.761,10.204-3.459,15.416    c3.3,5.21,10.202,6.761,15.416,3.459l48.733-30.873v45.581c0,4.073,2.216,7.823,5.786,9.787c1.68,0.925,3.535,1.384,5.386,1.384    c2.08,0,4.158-0.581,5.979-1.734l65.883-41.736C365.475,253.339,367.025,246.438,363.722,241.226z"/></g><g transform="matrix(0.1171875 0 0 0.1171875 254 221)" id="L1_7"><path d="M505.025,19.549c-14.688-14.686-44.146-6.307-92.708,26.377c-41.254,27.766-90.738,69.819-139.336,118.417    c-72.047,72.046-126.823,142.784-145.061,186.458c-3.002-1.088-6.115-1.958-9.327-2.593c-18.872-3.733-39.369,1.04-56.238,13.086    c-24.207,17.286-30.618,41.971-31.549,46.132c-5.096,19.032-14.747,37.191-27.921,52.529c-4.237,4.933-3.753,12.349,1.09,16.691    c16.927,15.17,38.58,22.779,61.102,22.779c21.706,0,44.22-7.069,64.077-21.249c9.311-6.649,16.36-14.001,17.725-15.456    c16.872-18.131,24.036-41.904,20.482-63.625c42.85-15.361,117.553-72.181,192.871-147.499    c48.598-48.598,90.652-98.083,118.417-139.336C511.332,63.696,519.713,34.238,505.025,19.549z M129.392,446.415    c-0.642,0.685-6.495,6.852-14.13,12.302c-27.732,19.8-61.684,22.09-86.345,6.845c11.549-15.834,20.132-33.683,25.063-52.254    v-0.001c0.055-0.208,0.105-0.418,0.149-0.63c0.041-0.189,4.193-19.127,22.119-31.927c11.53-8.235,25.277-11.547,37.711-9.089    c10.255,2.026,18.876,7.88,24.275,16.48C148.829,405.018,145.104,429.532,129.392,446.415z M159.217,376.663    c-0.245-0.41-3.87-7.77-10.624-13.24c5.819-15.557,18.346-36.584,35.806-60.729l37.455,37.455    C195.505,359.116,173.914,371.48,159.217,376.663z M241.198,325.685l-42.301-42.301c7.31-9.41,15.219-19.157,23.648-29.127    l47.806,47.806C260.233,310.608,250.489,318.493,241.198,325.685z M455.159,104.266c-26.926,38.916-66.643,85.235-111.832,130.422    c-18.973,18.973-37.367,36.232-54.844,51.694l-50.257-50.257c15.94-18.032,33.32-36.538,51.661-54.877    c45.188-45.189,91.507-84.905,130.422-111.834c47.916-33.155,64.45-33.208,67.626-32.774    C488.371,39.813,488.313,56.353,455.159,104.266z"/><path d="M119.256,414.119c-5.783-3.183-13.052-1.076-16.236,4.708c-0.322,0.585-0.711,1.132-1.158,1.626    c-0.894,0.93-3.832,3.77-6.884,5.951c-4.63,3.305-9.626,5.674-14.85,7.041c-6.387,1.671-10.209,8.203-8.538,14.59    c1.406,5.372,6.25,8.93,11.555,8.93c1.002,0,2.019-0.127,3.034-0.391c8.049-2.106,15.684-5.71,22.693-10.714    c4.499-3.213,10.471-9.095,10.512-9.14c1.777-1.927,3.319-4.069,4.583-6.366C127.149,424.57,125.04,417.301,119.256,414.119z"/></g></defs><g fi:class="KUsePattern" opacity="0.24"><pattern id="pattern_L1_0" width="350" height="350" patternUnits="userSpaceOnUse"><use xlink:href="#L1_0" x="-350" y="-350"/><use xlink:href="#L1_0" x="0" y="-350"/><use xlink:href="#L1_0" x="350" y="-350"/><use xlink:href="#L1_0" x="-350" y="0"/><use xlink:href="#L1_0" x="0" y="0"/><use xlink:href="#L1_0" x="350" y="0"/><use xlink:href="#L1_0" x="-350" y="350"/><use xlink:href="#L1_0" x="0" y="350"/><use xlink:href="#L1_0" x="350" y="350"/></pattern><rect x="0" y="0" width="100%" height="100%" fill="url(#pattern_L1_0)"/></g><g fi:class="KUsePattern" opacity="0.24"><pattern id="pattern_L1_1" width="350" height="350" patternUnits="userSpaceOnUse"><use xlink:href="#L1_1" x="-350" y="-350"/><use xlink:href="#L1_1" x="0" y="-350"/><use xlink:href="#L1_1" x="350" y="-350"/><use xlink:href="#L1_1" x="-350" y="0"/><use xlink:href="#L1_1" x="0" y="0"/><use xlink:href="#L1_1" x="350" y="0"/><use xlink:href="#L1_1" x="-350" y="350"/><use xlink:href="#L1_1" x="0" y="350"/><use xlink:href="#L1_1" x="350" y="350"/></pattern><rect x="0" y="0" width="100%" height="100%" fill="url(#pattern_L1_1)"/></g><g fi:class="KUsePattern" opacity="0.24"><pattern id="pattern_L1_2" width="350" height="350" patternUnits="userSpaceOnUse"><use xlink:href="#L1_2" x="-350" y="-350"/><use xlink:href="#L1_2" x="0" y="-350"/><use xlink:href="#L1_2" x="350" y="-350"/><use xlink:href="#L1_2" x="-350" y="0"/><use xlink:href="#L1_2" x="0" y="0"/><use xlink:href="#L1_2" x="350" y="0"/><use xlink:href="#L1_2" x="-350" y="350"/><use xlink:href="#L1_2" x="0" y="350"/><use xlink:href="#L1_2" x="350" y="350"/></pattern><rect x="0" y="0" width="100%" height="100%" fill="url(#pattern_L1_2)"/></g><g fi:class="KUsePattern" opacity="0.24"><pattern id="pattern_L1_3" width="350" height="350" patternUnits="userSpaceOnUse"><use xlink:href="#L1_3" x="-350" y="-350"/><use xlink:href="#L1_3" x="0" y="-350"/><use xlink:href="#L1_3" x="350" y="-350"/><use xlink:href="#L1_3" x="-350" y="0"/><use xlink:href="#L1_3" x="0" y="0"/><use xlink:href="#L1_3" x="350" y="0"/><use xlink:href="#L1_3" x="-350" y="350"/><use xlink:href="#L1_3" x="0" y="350"/><use xlink:href="#L1_3" x="350" y="350"/></pattern><rect x="0" y="0" width="100%" height="100%" fill="url(#pattern_L1_3)"/></g><g fi:class="KUsePattern" opacity="0.24"><pattern id="pattern_L1_4" width="350" height="350" patternUnits="userSpaceOnUse"><use xlink:href="#L1_4" x="-350" y="-350"/><use xlink:href="#L1_4" x="0" y="-350"/><use xlink:href="#L1_4" x="350" y="-350"/><use xlink:href="#L1_4" x="-350" y="0"/><use xlink:href="#L1_4" x="0" y="0"/><use xlink:href="#L1_4" x="350" y="0"/><use xlink:href="#L1_4" x="-350" y="350"/><use xlink:href="#L1_4" x="0" y="350"/><use xlink:href="#L1_4" x="350" y="350"/></pattern><rect x="0" y="0" width="100%" height="100%" fill="url(#pattern_L1_4)"/></g><g fi:class="KUsePattern" opacity="0.24"><pattern id="pattern_L1_5" width="350" height="350" patternUnits="userSpaceOnUse"><use xlink:href="#L1_5" x="-350" y="-350"/><use xlink:href="#L1_5" x="0" y="-350"/><use xlink:href="#L1_5" x="350" y="-350"/><use xlink:href="#L1_5" x="-350" y="0"/><use xlink:href="#L1_5" x="0" y="0"/><use xlink:href="#L1_5" x="350" y="0"/><use xlink:href="#L1_5" x="-350" y="350"/><use xlink:href="#L1_5" x="0" y="350"/><use xlink:href="#L1_5" x="350" y="350"/></pattern><rect x="0" y="0" width="100%" height="100%" fill="url(#pattern_L1_5)"/></g><g fi:class="KUsePattern" opacity="0.24"><pattern id="pattern_L1_6" width="350" height="350" patternUnits="userSpaceOnUse"><use xlink:href="#L1_6" x="-350" y="-350"/><use xlink:href="#L1_6" x="0" y="-350"/><use xlink:href="#L1_6" x="350" y="-350"/><use xlink:href="#L1_6" x="-350" y="0"/><use xlink:href="#L1_6" x="0" y="0"/><use xlink:href="#L1_6" x="350" y="0"/><use xlink:href="#L1_6" x="-350" y="350"/><use xlink:href="#L1_6" x="0" y="350"/><use xlink:href="#L1_6" x="350" y="350"/></pattern><rect x="0" y="0" width="100%" height="100%" fill="url(#pattern_L1_6)"/></g><g fi:class="KUsePattern" opacity="0.24"><pattern id="pattern_L1_7" width="350" height="350" patternUnits="userSpaceOnUse"><use xlink:href="#L1_7" x="-350" y="-350"/><use xlink:href="#L1_7" x="0" y="-350"/><use xlink:href="#L1_7" x="350" y="-350"/><use xlink:href="#L1_7" x="-350" y="0"/><use xlink:href="#L1_7" x="0" y="0"/><use xlink:href="#L1_7" x="350" y="0"/><use xlink:href="#L1_7" x="-350" y="350"/><use xlink:href="#L1_7" x="0" y="350"/><use xlink:href="#L1_7" x="350" y="350"/></pattern><rect x="0" y="0" width="100%" height="100%" fill="url(#pattern_L1_7)"/></g></svg>